<?xml version="1.0" encoding="UTF-8" standalone="no" ?>
<!DOCTYPE svg PUBLIC "-//W3C//DTD SVG 1.1//EN" "http://www.w3.org/Graphics/SVG/1.1/DTD/svg11.dtd">
<svg xmlns="http://www.w3.org/2000/svg" xmlns:xlink="http://www.w3.org/1999/xlink" version="1.1" width="400" height="400" viewBox="0 0 400 400" xml:space="preserve">
<desc>Created with Fabric.js 4.6.0</desc>
<defs>
</defs>
<g transform="matrix(3.96 0 0 3.96 205.31 205.66)" id="U9sYo49nGY2TwDH7HuJSB"  >
<path style="stroke: rgb(36,153,103); stroke-width: 0; stroke-dasharray: none; stroke-linecap: butt; stroke-dashoffset: 0; stroke-linejoin: miter; stroke-miterlimit: 4; fill: rgb(175,133,192); fill-rule: nonzero; opacity: 1;" vector-effect="non-scaling-stroke"  transform=" translate(0, 0)" d="M 0 -26.73797 C 14.75936 -26.73797 26.73797 -14.759360000000001 26.73797 0 C 26.73797 14.75936 14.759360000000001 26.73797 0 26.73797 C -14.75936 26.73797 -26.73797 14.759360000000001 -26.73797 0 C -26.73797 -14.75936 -14.759360000000001 -26.73797 0 -26.73797 z" stroke-linecap="round" />
</g>
<g transform="matrix(2.34 0 0 2.34 328.08 241.48)" id="rdYATOKcBmUuuOeqBSSzO"  >
<path style="stroke: none; stroke-width: 1; stroke-dasharray: none; stroke-linecap: butt; stroke-dashoffset: 0; stroke-linejoin: miter; stroke-miterlimit: 4; fill: rgb(137,89,155); fill-rule: nonzero; opacity: 1;" vector-effect="non-scaling-stroke"  transform=" translate(-25.93, -65.2)" d="M 51.85524 0 L 51.85524 130.4 L 0 95.75900000000001 C 15.81809 86.60031000000001 26.46642 69.49112000000001 26.46642 49.91000000000002 C 26.46642 39.75083000000002 23.60012 30.257060000000017 18.63262 22.193800000000017 z" stroke-linecap="round" />
</g>
<g transform="matrix(2.34 0 0 2.34 235.93 61.43)" id="luivp_GrLzxGk-Jz_kgd8"  >
<path style="stroke: none; stroke-width: 1; stroke-dasharray: none; stroke-linecap: butt; stroke-dashoffset: 0; stroke-linejoin: miter; stroke-miterlimit: 4; fill: rgb(165,101,187); fill-rule: nonzero; opacity: 1;" vector-effect="non-scaling-stroke"  transform=" translate(-43.2, -23.77)" d="M 0 0 L 86.4 0 L 67.24018000000001 47.54474 C 57.68762000000001 38.17165 44.60003000000001 32.388819999999996 30.17000000000001 32.388819999999996 C 24.553280000000008 32.388819999999996 19.13995000000001 33.264959999999995 14.059310000000007 34.88793 z" stroke-linecap="round" />
</g>
<g transform="matrix(2.34 0 0 2.34 60.86 172.6)" id="53d_gm_40Du96le-Vd1Sp"  >
<path style="stroke: none; stroke-width: 1; stroke-dasharray: none; stroke-linecap: butt; stroke-dashoffset: 0; stroke-linejoin: miter; stroke-miterlimit: 4; fill: rgb(226,148,238); fill-rule: nonzero; opacity: 1;" vector-effect="non-scaling-stroke"  transform=" translate(-21.21, -41.2)" d="M 0 82.4 L 0 0 L 42.4159 21.20795 C 34.64419 30.42235 29.958820000000003 42.32348 29.958820000000003 55.31228 C 29.958820000000003 59.2551 30.390560000000004 63.0977 31.209310000000002 66.79534 z" stroke-linecap="round" />
</g>
<g transform="matrix(2.34 0 0 2.34 164.56 345.02)" id="PWpWg2kWtDHQbFOtELt6V"  >
<path style="stroke: none; stroke-width: 1; stroke-dasharray: none; stroke-linecap: butt; stroke-dashoffset: 0; stroke-linejoin: miter; stroke-miterlimit: 4; fill: rgb(202,181,210); fill-rule: nonzero; opacity: 1;" vector-effect="non-scaling-stroke"  transform=" translate(-40, -21.02)" d="M 80 42.04038 L 0 42.04038 L 21.02019 0 C 30.50726 8.97532 43.30974 14.48156 57.39045 14.48156 C 60.28051 14.48156 63.11671 14.2496 65.88146 13.80329 z" stroke-linecap="round" />
</g>
</svg>